<svg width="509" height="678" viewBox="0 0 509 678" fill="none" xmlns="http://www.w3.org/2000/svg">
<g clip-path="url(#clip0_35_231)">
<path d="M470.8 9.59339C491.698 14.4864 504.673 35.3954 499.78 56.2946C494.887 77.1922 473.978 90.1674 453.08 85.2744C432.181 80.381 419.206 59.472 424.099 38.5744C428.992 17.6752 449.901 4.69998 470.8 9.59339Z" stroke="#799DAB" stroke-width="10.4611" stroke-linecap="round"/>
<path d="M56.1916 77.5906C77.0891 82.4836 90.0643 103.393 85.1709 124.292C80.2779 145.189 59.3689 158.165 38.4714 153.272C17.5721 148.378 4.5969 127.469 9.48992 106.572C14.3833 85.6724 35.2923 72.6972 56.1916 77.5906Z" stroke="#799DAB" stroke-width="10.4611" stroke-linecap="round"/>
<path d="M301.33 257.173C322.228 262.066 335.203 282.975 330.31 303.874C325.417 324.772 304.508 337.747 283.61 332.854C262.711 327.961 249.736 307.052 254.629 286.154C259.522 265.255 280.431 252.28 301.33 257.173Z" stroke="#799DAB" stroke-width="10.4611" stroke-linecap="round"/>
<path d="M130.814 457.678C151.712 462.571 164.687 483.48 159.793 504.379C154.9 525.276 133.991 538.252 113.094 533.359C92.1946 528.465 79.2193 507.556 84.1124 486.659C89.0058 465.759 109.915 452.784 130.814 457.678Z" stroke="#799DAB" stroke-width="10.4611" stroke-linecap="round"/>
<path d="M408.034 592.626C428.931 597.519 441.906 618.428 437.013 639.327C432.12 660.225 411.211 673.2 390.314 668.307C369.414 663.414 356.439 642.505 361.332 621.607C366.226 600.708 387.134 587.733 408.034 592.626Z" stroke="#799DAB" stroke-width="10.4611" stroke-linecap="round"/>
<path d="M73.4887 145.071L73.5042 145.086" stroke="#799DAB" stroke-width="10.4611" stroke-linecap="round"/>
<path d="M85.6932 106.713L420.449 49.1771" stroke="#799DAB" stroke-width="10.4611" stroke-linecap="round"/>
<path d="M322.812 270.604L451.832 85.791" stroke="#799DAB" stroke-width="10.4611" stroke-linecap="round"/>
<path d="M71.7451 146.814L258.302 274.091" stroke="#799DAB" stroke-width="10.4611" stroke-linecap="round"/>
<path d="M403.014 587.924L462.294 91.0215" stroke="#799DAB" stroke-width="10.4611" stroke-linecap="round"/>
<path d="M148.005 526L361.005 618" stroke="#799DAB" stroke-width="10.4611" stroke-linecap="round"/>
<path d="M146.005 465L269.005 328" stroke="#799DAB" stroke-width="10.4611" stroke-linecap="round"/>
<path d="M312.351 331.627L390.809 589.668" stroke="#799DAB" stroke-width="10.4611" stroke-linecap="round"/>
</g>
<defs>
<clipPath id="clip0_35_231">
<rect width="508.01" height="676.434" fill="white" transform="translate(0.630005 0.733093)"/>
</clipPath>
</defs>
</svg>
