<svg width="79" height="49" viewBox="0 0 79 49" fill="none" xmlns="http://www.w3.org/2000/svg">
<path d="M31.6099 15.25C31.6099 11.8717 34.3565 9.125 37.7349 9.125H40.7974C44.1757 9.125 46.9224 11.8717 46.9224 15.25V15.5945C46.9224 17.6809 45.8601 19.6236 44.1087 20.7434L40.07 23.3369C37.6583 24.8873 36.2036 27.5574 36.2036 30.4189V30.5625C36.2036 32.2564 37.5722 33.625 39.2661 33.625C40.9601 33.625 42.3286 32.2564 42.3286 30.5625V30.4285C42.3286 29.6438 42.7306 28.9164 43.3813 28.4953L47.42 25.9018C50.9228 23.6432 53.0474 19.7672 53.0474 15.5945V15.25C53.0474 8.48379 47.5636 3 40.7974 3H37.7349C30.9687 3 25.4849 8.48379 25.4849 15.25C25.4849 16.9439 26.8534 18.3125 28.5474 18.3125C30.2413 18.3125 31.6099 16.9439 31.6099 15.25ZM39.2661 45.875C40.2814 45.875 41.2551 45.4717 41.973 44.7538C42.6909 44.0359 43.0942 43.0622 43.0942 42.0469C43.0942 41.0316 42.6909 40.0579 41.973 39.34C41.2551 38.6221 40.2814 38.2188 39.2661 38.2188C38.2508 38.2188 37.2771 38.6221 36.5592 39.34C35.8413 40.0579 35.438 41.0316 35.438 42.0469C35.438 43.0622 35.8413 44.0359 36.5592 44.7538C37.2771 45.4717 38.2508 45.875 39.2661 45.875Z" fill="#799DAB"/>
</svg>
